<?xml version="1.0" standalone="no"?>
<!DOCTYPE svg PUBLIC "-//W3C//DTD SVG 20010904//EN"
 "http://www.w3.org/TR/2001/REC-SVG-20010904/DTD/svg10.dtd">
<svg version="1.0" xmlns="http://www.w3.org/2000/svg"
 width="2000.000000pt" height="2000.000000pt" viewBox="0 0 2000.000000 2000.000000"
 preserveAspectRatio="xMidYMid meet">

<g transform="translate(0.000000,2000.000000) scale(0.100000,-0.100000)"
fill="#000000" stroke="none">
<path d="M14560 17750 l0 -880 900 0 900 0 0 880 0 880 -900 0 -900 0 0 -880z"/>
<path d="M9385 18545 c-508 -54 -895 -134 -1347 -281 -855 -278 -1639 -738
-2303 -1350 -1025 -946 -1700 -2191 -1931 -3561 -66 -396 -78 -555 -79 -1038
0 -461 8 -578 61 -940 177 -1197 710 -2329 1525 -3240 588 -656 1312 -1186
2110 -1544 668 -299 1410 -483 2143 -531 204 -13 628 -13 832 0 1390 91 2714
647 3755 1576 163 145 485 477 613 629 841 1009 1336 2189 1451 3460 9 99 21
189 26 200 6 12 8 317 7 775 l-3 755 -820 2 c-582 2 -826 6 -841 14 -12 6 -27
22 -33 36 -8 17 -11 263 -11 838 l0 815 -815 0 c-712 0 -820 2 -845 15 -17 9
-31 17 -32 18 -2 1 -5 378 -8 837 l-5 835 -820 2 c-582 2 -826 6 -841 14 -12
6 -27 22 -33 36 -8 17 -11 263 -11 838 l0 815 -762 -1 c-723 -1 -775 -2 -983
-24z m215 -4740 l0 -1885 1886 0 1885 0 -6 -47 c-167 -1249 -989 -2296 -2155
-2746 -431 -167 -847 -237 -1330 -224 -804 22 -1534 309 -2154 849 -621 541
-1032 1326 -1132 2163 -20 167 -23 589 -5 740 91 789 409 1471 941 2019 409
421 877 712 1425 886 189 60 500 126 603 129 l42 1 0 -1885z"/>
<path d="M3975 5778 c32 -114 120 -367 180 -518 796 -2013 2586 -3479 4710
-3859 207 -37 438 -66 645 -83 200 -15 740 -15 940 0 510 40 996 136 1465 289
1778 579 3203 1917 3890 3653 60 151 148 404 180 518 l6 22 -1544 0 -1544 0
-56 -88 c-31 -49 -96 -140 -144 -204 -916 -1207 -2503 -1667 -3923 -1136 -604
226 -1138 628 -1538 1160 -44 59 -102 143 -129 187 l-48 80 -1548 1 -1548 0 6
-22z"/>
</g>
</svg>
