<svg xmlns="http://www.w3.org/2000/svg" viewBox="0 0 1744 1744" fill="none" shape-rendering="auto" aria-hidden="true"><metadata xmlns:rdf="http://www.w3.org/1999/02/22-rdf-syntax-ns#" xmlns:xsi="http://www.w3.org/2001/XMLSchema-instance" xmlns:dc="http://purl.org/dc/elements/1.1/" xmlns:dcterms="http://purl.org/dc/terms/"><rdf:RDF><rdf:Description><dc:title>Notionists</dc:title><dc:creator>Zoish</dc:creator><dc:source xsi:type="dcterms:URI">https://heyzoish.gumroad.com/l/notionists</dc:source><dcterms:license xsi:type="dcterms:URI">https://creativecommons.org/publicdomain/zero/1.0/</dcterms:license><dc:rights>Remix of “Notionists” (https://heyzoish.gumroad.com/l/notionists) by “Zoish”, licensed under “CC0 1.0” (https://creativecommons.org/publicdomain/zero/1.0/)</dc:rights></rdf:Description></rdf:RDF></metadata><defs><g id="head-variant01-1aad4bf0"><path d="M553 723.7c-99 297-363.7 388.6-503.6 19.8-19.3-50.7 31-69.5 66.2-91.9 24.1-15.3 36.8-28.5 35.3-42.2C144 545 114 365.6 114 365.6l-3-5.8s.7-1.6-2.2 1.2c-3 3-9.9 34.2-37 34.2-24.5 0-49.2-10.9-61-86.3C6.3 281.6 8.7 210 39 197c12.5-5.3 24-7.2 35.2-.8s-13-22 112-126C267.5 2.4 395.8-7.5 447.6 4S551 40.8 574 94.5c27.8 65-25.9 114.3-14 262.5-2.2 53.6.8 171.2-146.6 210.6-28 7.5-19.3 48.4 22.7 58.4 67 21 117 72.3 117 97.9" fill="white"/><path d="M7.6 228.9c5.2-16.1 23.7-44.7 42.2-42C71.7 185 83.8 198 94 213a140 140 0 0 1 22.4 61.5c.5 3.7 1 7.6-1.2 11.3-4.5.6-4.9-3-5-5.6-.5-20.7-9.7-38.7-18.9-56.1-6.6-12.5-16.2-24.6-31.4-27.6-17.2-3.5-33 12-40.8 32.2-14.5 37.6-12 74.6 1.4 111 5.8 15.9 13.1 32.1 27.8 43.2 14.8 11.3 32.7 9.3 43.6-5.7 2.5-3.4 5.6-6.7 7-10.6 2.1-5.7 5.4-11 11.3-10.3 6.8 1 8 8.3 8.7 14C126.2 436 137 501 147 566c2.6 17.1 5.6 41.7 3.6 52.1-.7 3.7 0 7-4.5 7.8-4.9.7-7-2.1-7.7-6.5-2.3-17-3-23.6-4-49.6-1.2-34.3-9.6-68-15.3-102a604 604 0 0 1-10.9-97c-8.5 12.7-14.8 23.3-26.5 27.2a40.5 40.5 0 0 1-46.1-12.6 128 128 0 0 1-28.8-55.8c-8.4-34-9.9-67.1.9-100.6m572.7-71.5c6.5 4.4 5.7 10 3.7 15.2-21.6 55.7-17.6 113.8-15.8 171.6 2.1 66.4-14.5 126.8-58.7 177.5-15.4 17.6-35.8 29.8-56.5 40.3-21.4 11-25.9 20.1-19.2 43.6 1.3 4.7 4.4 9.6-.2 14.4s-9.8 3.1-15.4 1.7a406 406 0 0 1-137-68.3c-6-4.5-11-10.6-15.8-16.5-2.5-3-3-7.8.5-10.4 3.7-2.9 6.4.1 9.8 2.7A146 146 0 0 0 352 561c21 2.1 41.5-.2 62.3-.1 11.5 0 20.6-5.9 29.5-10.8 27.8-15.5 54.3-32.8 72.2-60.7a230 230 0 0 0 31.6-80.9c9.6-48 5.3-96.6 5.5-146.2 4.2-36.9 8.1-72.7 27.3-104.8M60.6 238.6c21 1 34.7 28 35.8 70.3-6 18.8-12.8-1-21 2.7-4 14.5 15.1 20 16.3 34-14-.6-21.1-9.3-25.9-19.8-5.5-12.2-1-22.2 9.7-29.9-6.7-13.4-21.7-18-30-30.5 10-3.5 15.1 2.9 21 6.8 5.9 4 9 11.3 17 15-.8-19.8-11.7-34-23-48.6" fill="black"/></g><g id="clothes-variant23-1aad4bf0"><path d="M1340.4 725.7 36.7 722.4s33.4-209.7 96.2-329c17-32.4 81-128.7 141.8-189.6 40.8-41 87.7-56 89-62 2.2-9.7-11-41.4-8.8-48.5 8.1-25.5 9.5.8 42.1-31.8 18.3-18.2 1.4-29.6 21.6-43.2 29.8-20 60-8.7 87-7.6 18 .7 12.4 50.3 27.3 62.5 40.3 32.9 91.8 54 128 63.5 46.1 12.2 61.6-2.5 85.4-12.2s38.5 12.2 68.9-33.2c14.2-21.2-11-42.6 8.2-54 30.2-17.9 75.8-17.3 94.7-7.7 28.9 14.8 16.3 41.6 16.3 41.6s35.7 11.6 43 22c7.2 10 5 44 5 44s-2.8-13.7 63.4 23.5c84.2 47.4 179.2 187.2 223 296 46.6 115.8 71.6 269 71.6 269" fill="white"/><path d="M1334 725.7c-9.4-38.5-16.9-77.2-25.6-115.7q-9.6-41.5-22.4-82.2c-9.5-30.6-19.5-61-33-90.4q-14.4-31-29.5-61.5a673 673 0 0 0-57.7-92.4 470 470 0 0 0-60.5-70 343 343 0 0 0-83-57.4c-3-1.5-6.6-2.3-9.2-4.3-17-12.7-33.7-6.3-44.8 12.9-30.8 53.2-78.6 77.6-137.2 85.4a19 19 0 0 1-6.4 0c-5.6-1.2-13.6-1.2-13-9.1.7-6.9 8-4.5 12.7-5.1 43.7-5.8 84-19.6 113.4-54.3 12.4-14.8 21.6-32.4 31.3-49.3a34.3 34.3 0 0 0-23.7-50.5c-11.8-2.5-19.5-6.3-16.2-21.4 2-9.6-4.8-18.9-13.2-23-10.4-5-21.7-9.1-34.5-5.6-11.7 3.3-24.2 4.1-36.3 6-7.1 1-12.2 5.8-18 9.4-4.4 2.8-4.4 6.4-2.5 11 7 17.4 1 39.8-13.9 51-14.7 11.2-30.4 20.2-50 18.4q-7.1-.6-12.8 4.4c-14 11.8-30.4 14.5-48.7 14.3-38.8-.4-74.2-12.6-109.2-27.3-7.8-3.3-13.6-12.6-26.5-7.5 27 34.9 67 48.4 105.6 67.6a26 26 0 0 1-24.8 3c-51.4-17.5-91.9-47.6-117.2-97-8.4-16.5-14.9-33-18.1-51-2.3-12.6-5.7-13.8-17.6-8.4-13.2 6-24.9 14.3-35.7 23.6-12.5 10.8-20 24-18.1 41.5 1 8.4 0 17 .2 25.6a47 47 0 0 0 35.2 46 37 37 0 0 1 18.4 10.8c-14.6 6.6-40.5-1.2-53-15.9-33.7-39.8-20.4-108.6 25.8-132.8l5-2.8a40 40 0 0 0-54 19 81 81 0 0 1-39.3 43c-15.3 7.7-19.8 28.7-7.8 39.4 23.4 20.8 43 45.8 69.9 62.6 15.4 9.6 30.1 21 46.7 28 15.8 6.5 33.6 8.4 50.6 11.8 5 1 10.2.8 13.3 5.6.3 3.4-1.7 5.6-4.4 5.5-32.1-1.5-63.4-4.4-92-23a438 438 0 0 1-69-54.1c-11-11-23.1-6.1-34 0-39 22-72.5 50.9-102.9 83.7a615 615 0 0 0-87.4 123 871 871 0 0 0-50.5 108A1198 1198 0 0 0 74 576.3a558 558 0 0 0-20.6 102.1c-1.3 15.2-7.3 29.7-7.9 46.2-5.5 1-10.8 1-17.1 1q6.8-49.5 16.2-98.8c3.7-19.1 9.2-37.9 13.7-56.8 5.6-23.6 13.4-46.5 21.2-69.4a832 832 0 0 1 84-179q25.4-40.5 57-76c36.7-41.1 76.3-78 126-103 6.4-3.3 9.3-7 4.1-15.1-9.3-14.7-5.9-45.7 15.3-55.4 16.6-7.6 26.6-22 34.3-37.8A56 56 0 0 1 451.7 1l58.8-1c9 0 14.1 1.6 10.1 12.7-2.5 7-1.7 14.5 5.4 19.5a9 9 0 0 1 4 6.1c4.4 31 27.1 45.6 52.1 57.7 19.8 9.6 39.6 20.3 60.5 26.3 21.8 6.3 44.5 12.1 67.7 10.5a46 46 0 0 0 26.9-10.8c6.3-5.4 14.2-4.9 21.6-6.4 17-3.4 32.5-9.8 45-22 11.2-11.3 12-22 3.3-35.4-7.7-11.9-3.3-33.8 8.5-40.8 3.5-2 8.7-2.8 9.8 1.6 3 11.4 9.8 6.6 15.9 4.8a159 159 0 0 1 55.3-8.2A58 58 0 0 1 933 31.2c7.8 6.9 9.7 15.6 9.8 25.3 0 7.6 2.4 11.9 11 13.9C978.6 76 987.7 88 988 113.5c0 5.3 1.4 8.3 6.3 11 34.6 18.7 70.4 35.4 101.6 60 29.3 23 53 51.1 75.5 80.4A719 719 0 0 1 1272 441.8q27.3 69.8 46.4 142.4c12 46 16 93.5 27.1 140.6-3.2.9-6.7.9-11.4.9" fill="black"/><path d="M1149.7 725.7c-9.3-36.4-12.3-73.8-22.2-110-7.8-28.4-14-57.4-24.2-85-7.2-19.4-14-39-23.5-57.7-12.7-25-23.3-51.2-34.7-77-1.4-3-2.8-6.3 1.4-8.8 4.4-2.7 7.6-.6 9.9 2.7 5 7.3 10.2 14.6 14.3 22.5 16 31.2 31.8 62.7 42.9 96 7.5 22.8 15.6 45.5 21.2 69 3.9 16.5 8.2 33 12 49.4q10.6 48.4 14.5 97.9c-3.4 1-7 1-11.6 1m-903.7 0a451 451 0 0 1 4.4-86.5c3.7-29 4.4-58.3 11-87 3.9-17 9-33.6 13-50.4a338 338 0 0 1 34.6-92.4l7.4-12c2.3-3.3 4.1-8.7 9.5-6.2 5.7 2.8 3.2 8.2 1.8 12.4a320 320 0 0 1-10 26.1c-18 40-33 81.2-40.6 124-7.3 42-15.8 84.3-14 127.6.7 14-1.6 28-2.6 43.2-4.5 1.2-9 1.2-14.4 1.2m410.2-330.2c-1.5-9.8 2.8-16.7 6.6-23.8 11.4-21.4 8.4-30-11.6-42.7-17.7-11.3-35.3-23-44.2-44-5.8-14-4.4-28.3-6.2-42.4-1-7.2 2.4-16 12.3-16.7 9.4-.6 20.9-3.5 25.6 8.4 3.4 8.6 2.1 17-6.2 24-15 12.8-13.9 19.7 3.7 29.1 13.8 7.4 28.5 13.3 40.5 23.9 23.8 21 26 56 4.5 79.2-6.8 7.3-7.8 15.3-6 24.6.9 4.3 2.7 10.2-3.1 12.3-5.3 2-6.5-4-9.2-7-6.3-6.8-7.1-15-6.7-24.9m175 37.7c1.2 3.4 4.6 5.2 3 8.6-20.6.3-34.9-24.4-26-44 5-11.3 13.4-20.6 15.8-33.3 3-16.5 0-25.2-15-32.3-27-12.9-39.8-33-35.3-63.4 1.4-9.4 1.4-17.6-11.8-20.7-9-2.2-11.2-12.2-9.2-21 2-8.5 8.8-13.9 17-12.6 7.6 1.3 17.4 3.5 16.7 15.4-.2 3-.4 6.1 2 8.4 11 11 8.6 24.1 6 37.1-2.2 11.1 0 20.3 9.8 26.8 6.4 4.2 12.5 8.9 19.2 12.6a49 49 0 0 1 13 78.4c-14.3 16-15.7 25.7-5.2 40M878 119.7c16.8-7 17.8-16.8 17.5-33.6 0-5-2.4-10 .8-14.9 11.1 2.4 17.6 16.4 14 30a48 48 0 0 1-48.7 35.4 42 42 0 0 0-31.2 13c-7.7 7-16.5 10.5-27 4.4 18.8-9.4 31.1-30.8 55.7-28.2 6.8.7 12-3.5 18.8-6" fill="black"/></g><g id="hair-variant23-1aad4bf0"><path d="M389 219.9a329 329 0 0 1 106-64.5c35-13.4 69.8-16.6 106.1-16.5 40.6.2 74.5 18.6 112.4 32 57.4 20 176.1 126 141.5 262.2-4.6 18-7.6 35.8-12.8 52.8-7 22.5-3.2 43.3-1.6 65.2 3.8 49.7 46.1 114 51.6 163.2 3.9 34.6 6.2 68.6.7 102.8-4.4 27.9-21.6 71-29.9 97.4-5.5 17.9-39.4 4.1-54.3 17.4-5.3-2-6.5-4.6-7.2-9-2.6-17.8 3.2-33.3 10.4-49 6-13 7.5-27.4 11.8-41.1l-31.2 56.5c-10 15-14 16.4-30.1 9.1-15-6.8-29-15.8-44.4-21.7-4.4-1.6-8.3-3.5-13.1-4-13.3-1.3-18.6-12.3-24.8-21.8-2.1-3.3 1.4-5.7 4.2-8a278 278 0 0 1 56-34.8c30-15.5 44.8-41.6 57.8-69.8 13.2-28.3 19.2-58.7 24-89.2 5-32 .7-64.1-1-96.1-1.3-21.6-5-43.1 3.3-64.2 1-2.6.8-6 .1-8.9a653 653 0 0 1-16-92.6c-2.8-30.5-44-150.6-116.4-102.7-21.5 14.2-30 31.3-46.6 62.2-18 33.7-44 58.8-76.7 77.8-17.5 10.2-35.6 20.4-55.2 24.8-23.5 5.2-46.8 12.2-71.1 13.8a74 74 0 0 0-43.2 20.1c-24.5 21.4-20 44.7.5 72.5 24 32.5 45 67.1 51.2 106.6 5.2 33.4 6.4 68.2-5.7 102.2-7 19.7-16.9 37.5-25.3 56.3-11 24.6-8.2 49.5 2.2 74.8-31.7 19.8-65 14.4-99.2 9.4 1.7 9.5-5.6 9.4-12.7 9-28-1.4-56.2-1.3-82.5-12.9-1.9-.8-4.8-1.8-6-1-5.4 3.8-27.7 17.4-63-36.6-14-21.7-17.5-46-16.6-70.7a482 482 0 0 1 8.4-70.7c10.7-58.4 38.5-108.8 76.1-154 25.6-30.7 43.6-65.2 49-104.6 3.3-23.5 5.2-47 11.3-70.2A339 339 0 0 1 348 266c12.6-16 25-32 41-46.1" fill="black"/></g><g id="mouth-variant08-1aad4bf0"><path d="M155.6 136.2c-8.8 0-16.5.5-24-.4-5.1-.6-10.4-3.4-9-10 1.4-5.5 6-6 11.3-5.2 6.6 1 13.4 1.2 20.2 1.5 4 .2 8 .8 9.2 5.2 1.5 5.4-2 7.7-7.7 8.9" fill="black"/><path d="M179.7 91.3c8.6 7.2 17 7.6 26.6 1.3 10-6.6 12.9-15.7 13.3-28A686 686 0 0 1 67.5 54.3c5 6.8 12.4 3.6 13.8 11.8 3.5 19.1 12.4 23.6 30.6 17.1 5.6-2 9.2-2 12.7 3.8q16.3 27.6 42.1 8.8c3.5-2.4 6.4-5.7 13-4.6" fill="white"/><path fill-rule="evenodd" clip-rule="evenodd" d="M206.9 52.5c-3.8.3-7.6.6-11.5.1-10.4 1-20.2-.1-29.8-1.3q-8-1-15.9-1.4c-27-1.3-54.1-3.6-81.2-6l-1.9-.2c-5.2-.6-10.5-1.1-13 3.7-3 6.1 0 12.6 5.2 17a72 72 0 0 1 16.6 20c7 12.3 18.7 17 32.4 14.7 6-1 9.7.7 13.5 4.4a38.7 38.7 0 0 0 52.9 3.2c3.8-3 7.3-4.6 11.4-2.3 13.2 7.4 24.1.6 34.4-6 15.1-9.5 18.3-32.3 6.2-42.3-5.7-4.7-12.3-4.2-19.3-3.6m-.6 40.1c-9.7 6.3-18 5.9-26.6-1.3-5.6-1-8.6 1.3-11.5 3.5l-1.5 1.1c-17.3 12.4-31 9.7-42-8.8-3.6-5.8-7.2-5.8-12.8-3.8-18.2 6.5-27.1 2-30.6-17.1-.8-4.6-3.4-5.6-6.5-6.8-2.4-1-5.1-2-7.3-5 51.6 9.6 101.2 12 152 10.1-.3 12.4-3.1 21.5-13.2 28.1" fill="black"/></g><g id="beard-variant09-1aad4bf0"><path d="M406.9 115c-3.2 6.7-10.3 9-18.3 5.2-15.6-7.3-34-10.3-52.8-13.1q-5.4-1-11.2-1.2c-26-.2-26-.2-27.2-15.5L296 94c-5.4 11.8-5.4 12.4-27.4 11.7-16.5-.6-30.7 3.1-45.4 6-10 1.9-19.6 4.2-30.3 4.9-5.4.3-11 .6-13.8-2-2.9-2.7-3.1-6.5.4-9 9.2-6.6 14.2-14.7 23.5-21.3a53 53 0 0 1 47-9.6c14.7 3 31 3 44 8.8q3.8 1.3 8.5.1c12.7-2.7 26-3.8 39.4-5.2 32.1-3.2 39.9 3.3 57.6 16 8.6 6 7.4 13 7.3 20.6" fill="black"/></g><g id="nose-variant18-1aad4bf0"><path d="M65.7 102.7c-.6 21.6 16.4 30.6 27.5 43.5 8.5 10 18.5 18.7 13.7 34.4a39.6 39.6 0 0 1-40.8 27.6 104 104 0 0 1-36.4-11A22 22 0 0 1 19 186.6c-1.7-3.8-5.4-7.8-.5-11.4 4.6-3.4 7 0 10 3.7 11 13.3 26 16.4 42.6 15.7A23 23 0 0 0 93 179.8c3.6-8.3-1.6-15.2-6.3-20.8-9.3-11-20-20.5-27.4-33.2-8.3-14.2-7.6-44.1 2.2-57.4 1.9-2.5 3.6-5 7.2-3.1 3.8 2 3.4 5.5 2.2 9a69 69 0 0 0-5.2 28.4" fill="black"/></g><g id="eyes-variant04-1aad4bf0"><path d="M212.2 70q19.4.3 37.6 2.4c3 .4 5 3.3 5 6.7q-.1 5-4.7 7c-11.2 4.8-22 8.2-33.7.2-6.5-4.5-9-8.7-4.2-16.4M52.4 64.4c7 0 7.8 3.8 7 8.5-2 10.2-20 22.4-30.4 20.5-5.9-1-10.5-4-10.7-10.5-.2-6.7 4.8-8.2 10.3-8.4 9-.3 15.8-5.2 23.8-10M20 24c5-12 8.8-29.4 24-22.5C64.7 11 58 32.2 53.7 49 52 55.2 39.2 64.8 35.4 63.2 19.1 56.4 16.2 41.5 20 24m226.8 36.8c-8.6 7.5-17 7.6-22.2-1.5-9-16-8.6-32.8 3.3-47.2 2.5-3 13.8-3.6 16.3-1q20.8 22.7 2.6 49.7" fill="black"/></g><g id="eyebrows-variant10-1aad4bf0"><path d="M103.9 38.7C81.4 47 59.2 43 37.3 43c-3 0-6.3-2.2-9.2-4-2.7-1.5-4.4-4-3-7.4q2.1-5.4 8-4.5a188 188 0 0 0 79.9-7c5-1.6 13.3-8 16.2 1.6 3 10.2-6.8 10.8-13.4 13zm155.6-5.6c-7.2 2.7-13.5 5.3-19.9 7.6-2.4.8-5.1.9-6.8-1.8-1.6-2.4-1-4.4.5-7 13.4-22 56.2-24.9 71-4.4q2.8 3.6 4.2 7.8c1.3 4.1 2.4 9.2-2.2 11.5-4.3 2.2-7.7-1.1-10.7-4.5-14-15.5-17-16.3-36-9.2" fill="black"/></g><clipPath id="clip-1aad4bf0"><rect width="1744" height="1744" rx="0" ry="0"/></clipPath></defs><g clip-path="url(#clip-1aad4bf0)"><use transform="translate(532 491)" href="#head-variant01-1aad4bf0"/><use transform="translate(151 1029.3)" href="#clothes-variant23-1aad4bf0"/><use transform="translate(266 221.9)" href="#hair-variant23-1aad4bf0"/><use transform="translate(791 872)" href="#mouth-variant08-1aad4bf0"/><use transform="translate(653 805)" href="#beard-variant09-1aad4bf0"/><use transform="translate(901 669)" href="#nose-variant18-1aad4bf0"/><use transform="translate(805.2 732.6)" href="#eyes-variant04-1aad4bf0"/><use transform="translate(775 657)" href="#eyebrows-variant10-1aad4bf0"/></g></svg>