<?xml version="1.0" encoding="UTF-8"?>
<svg xmlns="http://www.w3.org/2000/svg"
     width="2048" height="2048" viewBox="0 0 512 512"
     style="color:#111111" shape-rendering="geometricPrecision"
     role="img" aria-labelledby="title desc">
  <title id="title">Gausio.com — monogramma g</title>
  <desc id="desc">Logo vettoriale geometrico e fluido basato su una g minuscola.</desc>
  <style>
    .mark { fill: currentColor; }
  </style>
  <g class="mark">
    <path d="M 308.53 64.96 L 249.08 64.96 L 231.66 66.50 L 214.49 69.57 L 201.93 73.42 L 182.71 82.13 L 168.87 90.33 L 155.29 101.35 L 148.37 108.01 L 136.84 121.34 L 125.05 140.04 L 118.90 152.86 L 114.55 165.16 L 110.19 184.89 L 108.91 206.67 L 110.19 223.84 L 116.60 249.98 L 122.75 264.07 L 135.05 284.32 L 147.35 298.92 L 162.47 311.99 L 175.02 320.19 L 191.94 328.39 L 214.74 335.06 L 230.63 337.11 L 252.41 336.85 L 274.96 332.75 L 281.88 330.70 L 297.26 324.29 L 308.02 318.40 L 312.38 315.07 L 314.17 316.35 L 313.66 334.54 L 311.86 343.77 L 307.51 356.07 L 299.05 370.67 L 289.06 382.46 L 279.32 390.15 L 271.12 395.02 L 256.26 400.66 L 244.21 402.96 L 232.42 403.22 L 217.82 401.17 L 210.64 399.12 L 199.11 394.51 L 187.58 387.08 L 183.74 382.72 L 179.89 371.70 L 177.33 367.34 L 172.46 362.47 L 169.13 360.68 L 164.26 359.14 L 159.14 358.63 L 152.47 360.42 L 145.55 365.81 L 143.25 369.39 L 123.00 418.34 L 123.52 420.39 L 139.92 434.74 L 159.39 448.58 L 179.89 458.83 L 198.09 464.98 L 222.17 469.08 L 242.42 469.33 L 254.46 468.31 L 271.12 465.23 L 280.86 462.16 L 293.41 457.03 L 308.02 449.35 L 321.86 439.86 L 332.11 431.41 L 339.80 423.72 L 349.53 411.68 L 361.58 393.23 L 369.52 376.57 L 375.16 359.66 L 379.00 339.92 L 380.28 326.85 L 380.54 200.52 L 379.52 188.99 L 374.90 168.74 L 373.37 165.67 L 294.69 165.41 L 294.69 166.95 L 298.79 171.31 L 303.15 177.97 L 307.25 186.68 L 309.30 193.09 L 310.07 209.49 L 308.02 221.28 L 305.20 229.22 L 301.10 236.91 L 291.62 249.47 L 284.70 255.87 L 276.24 261.77 L 260.61 268.68 L 246.26 271.25 L 234.73 270.99 L 227.04 269.71 L 218.84 267.15 L 208.08 262.02 L 196.80 253.82 L 188.60 245.11 L 181.94 235.37 L 178.10 227.17 L 175.54 218.97 L 174.00 208.72 L 174.00 201.03 L 176.05 186.94 L 178.10 180.53 L 181.94 172.08 L 190.40 160.03 L 196.04 153.88 L 206.03 146.19 L 222.17 137.99 L 228.32 135.94 L 241.65 133.64 L 308.28 133.38 L 310.07 132.36 L 310.58 66.50 Z"/>
    <circle cx="368.62" cy="77.23" r="34.63"/>
  </g>
</svg>
